<?xml version="1.0" encoding="UTF-8" standalone="no"?>
<svg width="81px" height="90px" viewBox="0 0 81 90" version="1.1" xmlns="http://www.w3.org/2000/svg" xmlns:xlink="http://www.w3.org/1999/xlink" xmlns:sketch="http://www.bohemiancoding.com/sketch/ns">
    <!-- Generator: Sketch 3.3.2 (12043) - http://www.bohemiancoding.com/sketch -->
    <title>Logo</title>
    <desc>Created with Sketch.</desc>
    <defs></defs>
    <g id="Page-1" stroke="none" stroke-width="1" fill="none" fill-rule="evenodd" sketch:type="MSPage">
        <g id="Home-1170" sketch:type="MSArtboardGroup" transform="translate(-234.000000, -19.000000)">
            <g id="MAIN-NAV-+-SUBNAV-TOP" sketch:type="MSLayerGroup" transform="translate(0.000000, -41.000000)">
                <g id="SUBNAV-TOP" transform="translate(226.000000, 0.000000)" sketch:type="MSShapeGroup">
                    <g id="Logo">
                        <g id="Group-8" transform="translate(0.764706, 0.409091)">
                            <path d="M84.7005672,63.847017 L75.2293874,67.6916837 C75.2293874,67.6916837 81.441242,63.3791534 80.1596587,60.086964 L54.4978923,78.9577405 C54.0417028,79.2931534 53.6631096,79.7231345 53.3875181,80.2178201 L43.1428596,101.182093 L37.5885034,97.7859337 L37.5694495,97.7804034 C37.5694495,97.7804034 35.2873972,96.0933845 32.8755574,97.6822405 C32.8755574,97.6822405 31.1184544,97.5738466 30.399376,98.0820814 C29.7570655,98.5361193 29.9931685,99.2486989 29.9931685,99.2486989 C31.966492,98.047517 35.1385557,102.633521 37.6437322,105.469184 C29.86559,102.97004 10.3836456,89.5361042 10.3836456,89.5361042 C10.6203008,92.9942027 16.1556031,96.8712216 16.1556031,96.8712216 L11.1648564,95.6968617 C11.9410966,98.1556345 18.0568531,100.348676 18.0568531,100.348676 L12.8416015,100.235581 C14.1527322,102.528722 21.0753809,104.026604 21.0753809,104.026604 L15.5779103,104.444972 C17.5134021,106.453301 25.0673155,107.290589 25.0673155,107.290589 L19.2006407,108.271112 C23.2088678,110.769979 32.1343874,110.417146 32.1343874,110.417146 L25.433206,111.726998 C31.6721227,114.224759 40.5377191,114.035347 44.393791,113.350972 C48.6334266,118.011911 53.0064397,123.002456 58.3597632,123.699275 L54.0588237,118.852517 C54.0588237,118.852517 59.6446603,122.093275 63.7036979,121.971055 L57.3454871,117.171305 C57.3454871,117.171305 64.8129675,120.073055 68.7060426,119.239638 L60.4015704,114.89835 C60.4015704,114.89835 70.3590394,117.139229 73.6017959,115.352112 L62.8760949,112.455063 C62.8760949,112.455063 74.6765475,113.572737 78.3003825,109.992419 C78.3003825,109.992419 60.4117877,111.279597 50.7147224,106.235684 C50.7147224,106.235684 55.8634234,106.031063 58.6999724,103.898301 L54.8088302,102.797771 C54.8088302,102.797771 59.8340949,102.812426 62.5726129,100.77368 L58.5558253,99.3399489 C58.5558253,99.3399489 63.8448074,99.697483 66.2334511,97.6783693 L61.9606783,95.8528163 C61.9606783,95.8528163 67.7492044,96.3596686 69.9075443,94.3662708 L65.1081652,92.2221723 C65.1081652,92.2221723 71.6243302,92.6543655 73.680773,90.5119261 L67.9391913,88.4635019 C67.9391913,88.4635019 75.1178253,88.9144981 77.0834168,86.5608011 L70.5559299,84.3102443 C70.5559299,84.3102443 78.5433891,84.6486989 80.2795051,82.1216269 L72.6347404,80.134036 C72.6347404,80.134036 81.9548694,79.9847178 83.2171227,76.6983352 L74.0855998,76.1347973 C74.0855998,76.1347973 84.4760623,74.4729413 85.1457109,70.1725777 L75.0054348,71.8969261 C75.0054348,71.8969261 85.324376,67.951608 84.7005672,63.847017" id="Fill-2" fill="#FFFFFF"></path>
                            <path d="M80.6537627,137.40237 L83.9172301,137.40237 C83.8145046,135.676086 83.3218641,135.100658 82.336583,135.100658 C81.4335928,135.100658 80.8177922,135.737749 80.6537627,137.40237 L80.6537627,137.40237 Z M76.9796696,138.65609 L76.9796696,138.409438 C76.9796696,135.223984 79.2376974,133.004397 82.2957137,133.004397 C85.6616304,133.004397 87.529467,135.080196 87.529467,138.532488 L87.529467,139.190317 L80.6333281,139.190317 C80.7360536,141.163253 81.5158837,141.903207 82.7063395,141.903207 C83.465735,141.903207 84.245565,141.430643 84.963815,140.238586 L87.4676108,141.224916 C86.6877807,142.951476 84.8610895,144.061131 82.5829033,144.061131 C79.258132,144.061131 76.9796696,141.96487 76.9796696,138.65609 L76.9796696,138.65609 Z M68.6064376,138.327037 L68.6064376,138.717753 C68.6064376,141.019465 69.2631075,141.903207 70.3511141,141.903207 C71.3769882,141.903207 72.0955144,140.937063 72.0955144,138.717753 L72.0955144,138.327037 C72.0955144,136.127912 71.3769882,135.141582 70.3511141,135.141582 C69.2631075,135.141582 68.6064376,136.046063 68.6064376,138.327037 L68.6064376,138.327037 Z M72.0134997,142.170597 C71.4797137,143.321177 70.3919833,144.061131 69.0167873,144.061131 C66.5127154,144.061131 64.8503297,141.779881 64.8503297,138.717753 L64.8503297,138.327037 C64.8503297,135.285647 66.5127154,133.004397 69.0167873,133.004397 C70.3919833,133.004397 71.4797137,133.744351 72.0134997,134.894931 L72.0134997,129.36684 L75.6257366,129.36684 L75.6257366,143.752817 L72.0134997,143.752817 L72.0134997,142.170597 Z M59.8838837,141.923669 C59.2272137,143.403578 58.1596418,144.061131 56.7231418,144.061131 C54.403534,144.061131 53.3773837,142.499374 53.3773837,140.361912 L53.3773837,133.312711 L56.9898967,133.312711 L56.9898967,139.786484 C56.9898967,140.834476 57.4002464,141.348241 58.282802,141.348241 C59.3089523,141.348241 59.8838837,140.629302 59.8838837,139.41623 L59.8838837,133.312711 L63.4961206,133.312711 L63.4961206,143.752817 L59.8838837,143.752817 L59.8838837,141.923669 Z M46.0098673,140.402836 L46.0098673,135.573222 L44.4908003,135.573222 L44.4908003,133.312711 L46.0098673,133.312711 L46.0098673,130.435294 L49.6221042,130.435294 L49.6221042,133.312711 L52.2283493,133.312711 L52.2283493,135.573222 L49.6221042,135.573222 L49.6221042,140.34145 C49.6221042,141.122328 49.9297284,141.348241 50.7302693,141.348241 C51.0994735,141.348241 51.735985,141.286855 52.2079147,141.245654 L52.2079147,143.65023 C51.3869392,143.814756 50.4428036,143.938082 49.6221042,143.938082 C46.9128575,143.938082 46.0098673,142.930738 46.0098673,140.402836 L46.0098673,140.402836 Z M39.7090944,133.312711 L43.3213314,133.312711 L43.3213314,143.752817 L39.7090944,143.752817 L39.7090944,133.312711 Z M39.7090944,129.469427 L43.3213314,129.469427 L43.3213314,132.243703 L39.7090944,132.243703 L39.7090944,129.469427 Z M34.1268477,129.36684 L37.7390846,129.36684 L37.7390846,143.753094 L34.1268477,143.753094 L34.1268477,129.36684 Z M28.9140814,138.717753 L28.9140814,138.327037 C28.9140814,136.046063 28.2574114,135.141582 27.1694049,135.141582 C26.0816745,135.141582 25.4250046,136.046063 25.4250046,138.327037 L25.4250046,138.717753 C25.4250046,141.019465 26.0816745,141.903207 27.1694049,141.903207 C28.2574114,141.903207 28.9140814,141.019465 28.9140814,138.717753 L28.9140814,138.717753 Z M32.6699131,138.65609 C32.6699131,141.779881 30.5353216,144.061131 27.1694049,144.061131 C23.8034882,144.061131 21.6688967,141.779881 21.6688967,138.65609 L21.6688967,138.409438 C21.6688967,135.285647 23.8034882,133.004397 27.1694049,133.004397 C30.5353216,133.004397 32.6699131,135.285647 32.6699131,138.409438 L32.6699131,138.65609 Z M8.00005523,140.649764 L10.6681565,138.697291 C11.817467,140.484961 13.0487922,141.224916 14.4855683,141.224916 C15.6964588,141.224916 16.4558542,140.670226 16.4558542,139.84787 C16.4558542,139.087453 15.9430552,138.635351 14.5267137,138.306575 L12.8847627,137.936874 C10.175516,137.319969 8.82075458,135.9432 8.82075458,133.600287 C8.82075458,131.134048 10.7910405,129.058525 14.6907431,129.058525 C17.2152497,129.058525 19.4114212,130.127256 20.6018771,131.832802 L17.9746451,133.764813 C16.8460454,132.326105 15.8403297,131.81234 14.6907431,131.81234 C13.5825781,131.81234 12.8847627,132.264442 12.8847627,133.045321 C12.8847627,133.682412 13.3158232,134.114052 14.444699,134.360703 L16.08665,134.710219 C19.4525667,135.429434 20.7043265,137.073594 20.7043265,139.334381 C20.7043265,142.006071 18.3648363,144.061131 14.4855683,144.061131 C11.4479866,144.061131 9.08778562,142.807412 8.00005523,140.649764 L8.00005523,140.649764 Z" id="Fill-4" fill="#F6D048"></path>
                            <path d="M74.0759072,148.982935 L74.2040379,148.982935 C74.2507062,148.982935 74.3128386,148.912977 74.3128386,148.870394 L74.3128386,147.260522 L74.0952373,147.260522 L74.0372471,147.761844 L73.4973859,147.761844 L73.4973859,146.739568 L76.0368042,146.739568 L76.0368042,147.761844 L75.5010853,147.761844 L75.4389529,147.260522 L75.2213516,147.260522 L75.2213516,148.870394 C75.2213516,148.912977 75.283484,148.982935 75.3298761,148.982935 L75.458283,148.982935 L75.458283,149.461306 L74.0759072,149.461306 L74.0759072,148.982935 Z M70.6332225,147.95264 L70.7884154,147.95264 C71.0485428,147.95264 71.1222732,147.832079 71.1222732,147.614462 C71.1222732,147.396844 71.0446768,147.272412 70.7884154,147.272412 L70.6332225,147.272412 L70.6332225,147.95264 Z M69.5264382,148.982935 L69.6391049,148.982935 C69.6857732,148.982935 69.7479056,148.912977 69.7479056,148.870394 L69.7479056,147.346242 C69.7479056,147.303659 69.6857732,147.237295 69.6391049,147.237295 L69.5264382,147.237295 L69.5264382,146.739568 L70.8776098,146.739568 C71.6695902,146.739568 72.0271964,146.996174 72.0271964,147.517405 C72.0271964,147.840098 71.8717275,148.038083 71.4989333,148.13514 L71.4989333,148.150901 C71.778667,148.209522 71.9145297,148.32953 71.9998582,148.710844 L72.0423843,148.885878 C72.0581245,148.955837 72.1045167,148.982935 72.1395869,148.982935 L72.2055853,148.982935 L72.2055853,149.461306 L71.2117438,149.461306 L71.1222732,148.722181 C71.0952111,148.500969 71.0176147,148.423269 70.8196196,148.423269 L70.6564186,148.423269 L70.6564186,148.982935 L70.901082,148.982935 L70.901082,149.461306 L69.5264382,149.461306 L69.5264382,148.982935 Z M67.1979938,148.115784 C67.1979938,147.567454 67.0038647,147.311125 66.7244072,147.311125 C66.4408075,147.311125 66.2505444,147.567454 66.2505444,148.115784 C66.2505444,148.664113 66.4408075,148.932333 66.7244072,148.932333 C67.0038647,148.932333 67.1979938,148.664113 67.1979938,148.115784 L67.1979938,148.115784 Z M65.3188353,148.100299 C65.3188353,147.198583 65.9476147,146.696708 66.7244072,146.696708 C67.5009235,146.696708 68.1299791,147.198583 68.1299791,148.100299 C68.1299791,149.002291 67.5202536,149.50389 66.7244072,149.50389 C65.9282846,149.50389 65.3188353,149.002291 65.3188353,148.100299 L65.3188353,148.100299 Z M62.3574693,149.461306 L61.7786719,149.461306 L61.7786719,148.602174 L62.3690673,148.602174 L62.4466637,148.940352 C62.5049301,148.959708 62.5747944,148.96745 62.6794529,148.96745 C62.8854562,148.96745 63.0094448,148.897216 63.0094448,148.726606 C63.0094448,148.539681 62.8310559,148.504564 62.5438663,148.42714 C62.1476,148.322064 61.7905461,148.15892 61.7905461,147.571878 C61.7905461,146.953591 62.2174644,146.696708 62.7998516,146.696708 C63.044515,146.696708 63.1842438,146.716341 63.2969105,146.739568 L63.7936931,146.739568 L63.7936931,147.528742 L63.211582,147.528742 L63.1337095,147.237295 C63.0831752,147.22181 63.0174529,147.20992 62.9318484,147.20992 C62.7183892,147.20992 62.6018565,147.279878 62.6018565,147.447447 C62.6018565,147.629947 62.7766556,147.661193 62.9746507,147.715666 C63.6269023,147.8907 63.8754317,148.069329 63.8754317,148.590284 C63.8754317,149.181197 63.5454399,149.50389 62.8153157,149.50389 C62.6289186,149.50389 62.493332,149.488681 62.3574693,149.461306 L62.3574693,149.461306 Z M57.9866654,148.982935 L58.099332,148.982935 C58.1457242,148.982935 58.2078565,148.912977 58.2078565,148.870394 L58.2078565,147.346242 C58.2078565,147.303659 58.1457242,147.237295 58.099332,147.237295 L57.9866654,147.237295 L57.9866654,146.739568 L60.3007503,146.739568 L60.3007503,147.622481 L59.7766294,147.622481 L59.6987569,147.276007 L59.1163696,147.276007 L59.1163696,147.796962 L59.7415592,147.796962 L59.7415592,148.349162 L59.1163696,148.349162 L59.1163696,148.940352 L59.7144971,148.940352 L59.7882275,148.528344 L60.3358206,148.528344 L60.3358206,149.461306 L57.9866654,149.461306 L57.9866654,148.982935 Z M54.9863631,147.95264 L55.141832,147.95264 C55.4016833,147.95264 55.4756899,147.832079 55.4756899,147.614462 C55.4756899,147.396844 55.3980935,147.272412 55.141832,147.272412 L54.9863631,147.272412 L54.9863631,147.95264 Z M53.8798549,148.982935 L53.9925216,148.982935 C54.0389137,148.982935 54.1010461,148.912977 54.1010461,148.870394 L54.1010461,147.346242 C54.1010461,147.303659 54.0389137,147.237295 53.9925216,147.237295 L53.8798549,147.237295 L53.8798549,146.739568 L55.2310265,146.739568 C56.0230069,146.739568 56.3803369,146.996174 56.3803369,147.517405 C56.3803369,147.840098 56.224868,148.038083 55.85235,148.13514 L55.85235,148.150901 C56.1318075,148.209522 56.2676703,148.32953 56.3532748,148.710844 L56.395801,148.885878 C56.411265,148.955837 56.4579333,148.982935 56.4927275,148.982935 L56.559002,148.982935 L56.559002,149.461306 L55.5648843,149.461306 L55.4756899,148.722181 C55.4486278,148.500969 55.3707552,148.423269 55.1727601,148.423269 L55.0095592,148.423269 L55.0095592,148.982935 L55.2544987,148.982935 L55.2544987,149.461306 L53.8798549,149.461306 L53.8798549,148.982935 Z M47.7895036,148.982935 L47.9021703,148.982935 C47.9488386,148.982935 48.0109709,148.912977 48.0109709,148.870394 L48.0109709,147.346242 C48.0109709,147.303659 47.9488386,147.237295 47.9021703,147.237295 L47.7895036,147.237295 L47.7895036,146.739568 L48.8805477,146.739568 L49.6921343,148.143159 L49.7037324,148.143159 L49.7037324,147.237295 L49.466801,147.237295 L49.466801,146.739568 L50.5617111,146.739568 L50.5617111,147.237295 L50.4609186,147.237295 C50.4181163,147.237295 50.355984,147.303659 50.355984,147.346242 L50.355984,149.461306 L49.5678696,149.461306 L48.6709546,147.917522 L48.6593565,147.917522 L48.6593565,148.982935 L48.9078859,148.982935 L48.9078859,149.461306 L47.7895036,149.461306 L47.7895036,148.982935 Z M44.9753222,148.982935 L45.1075951,148.982935 C45.1539873,148.982935 45.2161196,148.912977 45.2161196,148.870394 L45.2161196,147.346242 C45.2161196,147.303659 45.1539873,147.237295 45.1075951,147.237295 L44.9753222,147.237295 L44.9753222,146.739568 L46.3654301,146.739568 L46.3654301,147.237295 L46.2295673,147.237295 C46.186765,147.237295 46.1246327,147.303659 46.1246327,147.346242 L46.1246327,148.870394 C46.1246327,148.912977 46.186765,148.982935 46.2295673,148.982935 L46.3654301,148.982935 L46.3654301,149.461306 L44.9753222,149.461306 L44.9753222,148.982935 Z M41.7425069,148.216988 L42.2508876,148.216988 L42.0219644,147.4162 L42.0142324,147.4162 L41.7425069,148.216988 Z M40.6939889,148.982935 L40.7445232,148.982935 C40.8066556,148.982935 40.8649219,148.932333 40.891984,148.862375 L41.4277029,147.342371 C41.4434431,147.299234 41.4083729,147.237295 41.3578386,147.237295 L41.229984,147.237295 L41.229984,146.739568 L42.6935461,146.739568 L43.3731359,148.893621 C43.3886,148.936204 43.4507324,148.982935 43.4896686,148.982935 L43.5515248,148.982935 L43.5515248,149.461306 L42.1694252,149.461306 L42.1694252,148.982935 L42.4723549,148.982935 L42.3715624,148.628996 L41.606368,148.628996 C41.5326376,148.866522 41.5561098,148.982935 41.7460967,148.982935 L41.8471654,148.982935 L41.8471654,149.461306 L40.6939889,149.461306 L40.6939889,148.982935 Z M37.6122242,148.982935 L37.7400788,148.982935 C37.7870232,148.982935 37.8491556,148.912977 37.8491556,148.870394 L37.8491556,147.260522 L37.6315542,147.260522 L37.5732879,147.761844 L37.0337029,147.761844 L37.0337029,146.739568 L39.5728451,146.739568 L39.5728451,147.761844 L39.0371261,147.761844 L38.9749938,147.260522 L38.7576686,147.260522 L38.7576686,148.870394 C38.7576686,148.912977 38.8195248,148.982935 38.8661931,148.982935 L38.9943239,148.982935 L38.9943239,149.461306 L37.6122242,149.461306 L37.6122242,148.982935 Z M32.8261,148.982935 L32.9387667,148.982935 C32.9851588,148.982935 33.0472912,148.912977 33.0472912,148.870394 L33.0472912,147.346242 C33.0472912,147.303659 32.9851588,147.237295 32.9387667,147.237295 L32.8261,147.237295 L32.8261,146.739568 L33.9171441,146.739568 L34.7284546,148.143159 L34.7403288,148.143159 L34.7403288,147.237295 L34.5033974,147.237295 L34.5033974,146.739568 L35.5983075,146.739568 L35.5983075,147.237295 L35.497515,147.237295 C35.4547127,147.237295 35.3925804,147.303659 35.3925804,147.346242 L35.3925804,149.461306 L34.6041899,149.461306 L33.7072748,147.917522 L33.6956768,147.917522 L33.6956768,148.982935 L33.9442062,148.982935 L33.9442062,149.461306 L32.8261,149.461306 L32.8261,148.982935 Z M28.8551523,148.469723 L28.8551523,147.346242 C28.8551523,147.303659 28.7930199,147.237295 28.7463516,147.237295 L28.6494252,147.237295 L28.6494252,146.739568 L30.031801,146.739568 L30.031801,147.237295 L29.7639415,147.237295 L29.7639415,148.516454 C29.7639415,148.80403 29.880198,148.928462 30.1364595,148.928462 C30.3965869,148.928462 30.5131196,148.80403 30.5131196,148.516454 L30.5131196,147.237295 L30.2452601,147.237295 L30.2452601,146.739568 L31.3984366,146.739568 L31.3984366,147.237295 L31.301234,147.237295 C31.2587078,147.237295 31.1965755,147.303659 31.1965755,147.346242 L31.1965755,148.469723 C31.1965755,149.146079 30.8121833,149.492276 30.0353908,149.492276 C29.2472765,149.492276 28.8551523,149.146079 28.8551523,148.469723 L28.8551523,148.469723 Z M26.3405869,148.115784 C26.3405869,147.567454 26.1461817,147.311125 25.8667242,147.311125 C25.5834007,147.311125 25.3931376,147.567454 25.3931376,148.115784 C25.3931376,148.664113 25.5834007,148.932333 25.8667242,148.932333 C26.1461817,148.932333 26.3405869,148.664113 26.3405869,148.115784 L26.3405869,148.115784 Z M24.4611523,148.100299 C24.4611523,147.198583 25.0902078,146.696708 25.8667242,146.696708 C26.6432405,146.696708 27.2722961,147.198583 27.2722961,148.100299 C27.2722961,149.002291 26.6625706,149.50389 25.8667242,149.50389 C25.0708778,149.50389 24.4611523,149.002291 24.4611523,148.100299 L24.4611523,148.100299 Z M19.4927732,148.982935 L19.6054399,148.982935 C19.651832,148.982935 19.7139644,148.912977 19.7139644,148.870394 L19.7139644,147.346242 C19.7139644,147.303659 19.651832,147.237295 19.6054399,147.237295 L19.4927732,147.237295 L19.4927732,146.739568 L20.9602013,146.739568 L21.2708631,147.9955 L21.2827373,147.9955 L21.597265,146.739568 L23.0724252,146.739568 L23.0724252,147.237295 L22.9561686,147.237295 C22.9133663,147.237295 22.851234,147.303659 22.851234,147.346242 L22.851234,148.870394 C22.851234,148.912977 22.9133663,148.982935 22.9561686,148.982935 L23.0724252,148.982935 L23.0724252,149.461306 L21.7485918,149.461306 L21.7485918,148.982935 L21.9661931,148.982935 L21.9661931,147.49003 L21.954319,147.49003 L21.422466,149.461306 L20.9022111,149.461306 L20.373948,147.49003 L20.36235,147.49003 L20.36235,148.982935 L20.5954154,148.982935 L20.5954154,149.461306 L19.4927732,149.461306 L19.4927732,148.982935 Z" id="Fill-6" fill="#F6D048"></path>
                        </g>
                    </g>
                </g>
            </g>
        </g>
    </g>
</svg>